<svg width="81" height="106" viewBox="0 0 81 106" fill="none" xmlns="http://www.w3.org/2000/svg">
<path d="M10.784 6.37955C5.06922 9.89067 0.303774 12.8318 0.196187 12.9227L0 13.0865L0.41136 15.6516C0.632862 17.0645 1.05055 19.9874 1.32901 22.1584C1.84163 26.0637 1.84796 26.1001 2.0125 26.2577C2.10743 26.3426 3.39214 27.4888 4.87304 28.8047C18.5429 40.9572 24.3272 45.9661 24.4918 45.8024C24.5171 45.7721 24.7892 44.9292 25.093 43.9286C25.3967 42.928 25.8081 41.5636 26.0106 40.8965C26.2131 40.2295 26.7258 38.5376 27.1498 37.1368C27.5738 35.736 28.1624 33.7954 28.4535 32.8312C28.7509 31.861 28.9977 31.0302 28.9977 30.9817C29.0041 30.9332 28.1244 29.5506 27.0359 27.9132C25.4157 25.4573 21.3907 18.9687 21.3907 18.7989C21.3907 18.7746 21.878 17.774 22.4729 16.5733C27.5611 6.30678 29.0547 3.25046 29.0104 3.20801C28.9787 3.17769 28.5547 2.9897 28.0674 2.79565C27.5801 2.59554 25.8398 1.88603 24.1943 1.21292C22.5552 0.539799 21.2009 -0.00597382 21.1882 9.15527e-05C21.1756 9.15527e-05 16.4924 2.87449 10.784 6.37955Z" fill="#162C56"/>
<path d="M55.8186 1.692C53.7175 2.5531 51.9835 3.2808 51.9771 3.31112C51.9645 3.34144 53.5973 6.6767 55.6034 10.7275C57.6096 14.7784 59.3373 18.2774 59.4386 18.5017L59.6284 18.908L58.4133 20.9274C56.1667 24.6508 55.8692 25.1177 54.0782 27.8284C53.0973 29.3141 52.2239 30.636 52.1353 30.7695L51.9771 31.012L52.1543 31.5881C52.2493 31.9034 52.6733 33.3103 53.0973 34.7111C53.5213 36.1119 54.1035 38.0343 54.3947 38.9863C54.6794 39.9384 55.268 41.8729 55.692 43.2919C56.1224 44.7109 56.4894 45.8873 56.5084 45.9116C56.6476 46.0692 63.1218 40.4599 75.374 29.5566C77.0574 28.0588 78.6016 26.6762 78.8041 26.4942L79.1712 26.1607L79.6458 22.4616C80.1585 18.5199 80.2787 17.6528 80.7217 14.9178L81.0002 13.1835L80.8293 13.0198C80.5698 12.7772 59.8879 0.115326 59.7613 0.121391C59.698 0.121391 57.926 0.830891 55.8186 1.692Z" fill="#162C56"/>
<path d="M30.1685 3.97212C29.9787 4.33598 26.3017 11.5341 23.5994 16.8341L22.7261 18.5503L28.2826 27.4463C31.3393 32.3461 33.8708 36.4091 33.9151 36.4819C33.953 36.5607 34.0986 37.3794 34.2378 38.3011C34.6808 41.2968 35.1238 44.3288 35.2504 45.2324C35.32 45.7175 35.4023 46.3179 35.4403 46.5665C35.5162 47.0698 35.8137 49.3075 36.7756 56.4813L37.4211 61.3266L37.8894 62.121C38.1489 62.5515 39.8956 65.6685 41.7752 69.0401L45.1863 75.171L46.028 75.3347C47.5343 75.6318 50.0151 76.1473 50.7745 76.3171C51.458 76.4687 51.515 76.4929 51.515 76.6264C51.515 76.7416 51.9073 76.4444 53.7426 74.9405C54.9704 73.9339 56.0273 73.0607 56.0906 73.0061C56.2045 72.903 56.1918 72.8727 55.7931 72.1025C55.5589 71.6659 55.3501 71.3081 55.3185 71.3081C55.2931 71.3081 55.1159 70.9564 54.9261 70.5198C54.7362 70.0892 54.5464 69.7315 54.5084 69.7315C54.4641 69.7315 54.4261 69.689 54.4261 69.6344C54.4261 69.5798 54.3882 69.5495 54.3439 69.5677C54.2996 69.5798 53.4389 70.1681 52.4326 70.8594C51.42 71.5568 50.5087 72.1874 50.4011 72.2663L50.1986 72.3997L49.6164 70.7442C47.9583 66.0323 47.0786 63.5218 46.2749 61.2417L45.3952 58.7251L45.604 54.9653C45.7179 52.8975 45.8255 50.9994 45.8508 50.7508C45.8698 50.5021 46.0723 48.1796 46.2939 45.5963C46.5217 43.0129 46.7748 40.0354 46.8634 38.9864C46.952 37.9373 47.047 37.0095 47.0723 36.9246C47.1039 36.8397 49.61 32.6372 52.6415 27.5797L58.16 18.3865L57.1095 16.4218C55.0906 12.6378 54.4514 11.3946 52.5782 7.60453L50.6986 3.78414L45.1737 3.77201C39.6172 3.75988 32.2317 3.66892 31.0292 3.59615L30.39 3.5537L30.1685 3.97212Z" fill="#162C56"/>
<path d="M30.0737 33.5408C30.0104 33.7167 28.9915 36.5304 27.8144 39.7929L25.6753 45.7236L26.1563 47.8885C26.4221 49.0771 27.1245 52.2365 27.7131 54.9047C28.308 57.5729 28.8143 59.8227 28.8396 59.9076C28.8712 59.9986 29.3206 60.3806 30.0294 60.9143C30.6559 61.3873 31.1749 61.7693 31.1812 61.7632C31.1875 61.7572 30.9723 60.9264 30.7002 59.9258L30.2003 58.1005L30.2889 57.0757C30.3395 56.5178 30.5293 54.2013 30.7192 51.9333L31.0673 47.8097L31.447 45.8085C31.8204 43.8256 32.7444 38.8833 32.9469 37.7736L33.0545 37.1914L31.6495 35.2085C30.8711 34.1169 30.2319 33.2255 30.2192 33.2255C30.2066 33.2255 30.1433 33.371 30.0737 33.5408Z" fill="#162C56"/>
<path d="M49.0656 35.833L47.6543 37.8281L47.9644 39.4836C48.1416 40.3932 48.5909 42.831 48.977 44.8988L49.6795 48.6586L49.9959 52.5093C50.1731 54.6257 50.3566 56.8937 50.4136 57.5425L50.5148 58.7311L50.0339 60.4897C49.7681 61.4599 49.5529 62.2847 49.5529 62.321C49.5529 62.3635 50.0718 62.0057 50.7047 61.5266L51.8502 60.6655L52.3754 58.3309C53.0336 55.3594 54.9765 46.6332 55.0082 46.4755C55.0398 46.336 55.198 46.7787 52.5969 39.5806C51.4768 36.4879 50.5655 33.9288 50.5655 33.8924C50.5655 33.8621 50.5465 33.8318 50.5212 33.8379C50.4895 33.8379 49.8377 34.7354 49.0656 35.833Z" fill="#162C56"/>
<path d="M9.9043 86.8136V101.032H8.04883V86.8136H9.9043ZM14.4746 86.8136V88.3566H3.48828V86.8136H14.4746ZM21.4277 99.2257V93.7863C21.4277 93.3696 21.3431 93.0083 21.1738 92.7023C21.0111 92.3898 20.7637 92.1489 20.4316 91.9796C20.0996 91.8103 19.6895 91.7257 19.2012 91.7257C18.7454 91.7257 18.3451 91.8038 18 91.9601C17.6615 92.1163 17.3945 92.3214 17.1992 92.5753C17.0104 92.8292 16.916 93.1027 16.916 93.3956H15.1094C15.1094 93.018 15.207 92.6437 15.4023 92.2726C15.5977 91.9015 15.8776 91.5662 16.2422 91.2667C16.6133 90.9607 17.056 90.7198 17.5703 90.5441C18.0911 90.3618 18.6706 90.2706 19.3086 90.2706C20.0768 90.2706 20.7539 90.4008 21.3398 90.6613C21.9323 90.9217 22.3945 91.3156 22.7266 91.8429C23.0651 92.3637 23.2344 93.018 23.2344 93.8058V98.7277C23.2344 99.0792 23.2637 99.4536 23.3223 99.8507C23.3874 100.248 23.4818 100.59 23.6055 100.876V101.032H21.7207C21.6296 100.824 21.5579 100.547 21.5059 100.202C21.4538 99.8507 21.4277 99.5252 21.4277 99.2257ZM21.7402 94.6261L21.7598 95.8956H19.9336C19.4193 95.8956 18.9603 95.9379 18.5566 96.0226C18.153 96.1007 17.8145 96.2212 17.541 96.3839C17.2676 96.5467 17.0592 96.7517 16.916 96.9991C16.7728 97.24 16.7012 97.5232 16.7012 97.8488C16.7012 98.1808 16.776 98.4835 16.9258 98.757C17.0755 99.0304 17.3001 99.2485 17.5996 99.4113C17.9056 99.5675 18.2799 99.6456 18.7227 99.6456C19.276 99.6456 19.7643 99.5284 20.1875 99.2941C20.6107 99.0597 20.946 98.7732 21.1934 98.4347C21.4473 98.0962 21.584 97.7674 21.6035 97.4484L22.375 98.3175C22.3294 98.5909 22.2057 98.8937 22.0039 99.2257C21.8021 99.5577 21.5319 99.8767 21.1934 100.183C20.8613 100.482 20.4642 100.733 20.002 100.935C19.5462 101.13 19.0319 101.228 18.459 101.228C17.7428 101.228 17.1146 101.088 16.5742 100.808C16.0404 100.528 15.6237 100.153 15.3242 99.6847C15.0312 99.2094 14.8848 98.6788 14.8848 98.0929C14.8848 97.5265 14.9954 97.0284 15.2168 96.5988C15.4382 96.1626 15.7572 95.8012 16.1738 95.5148C16.5905 95.2218 17.0918 95.0004 17.6777 94.8507C18.2637 94.701 18.918 94.6261 19.6406 94.6261H21.7402ZM27.8926 86.0323V101.032H26.0762V86.0323H27.8926ZM34.3477 90.4659L29.7383 95.3976L27.1602 98.0734L27.0137 96.1495L28.8594 93.9425L32.1406 90.4659H34.3477ZM32.6973 101.032L28.9277 95.9933L29.8652 94.382L34.8262 101.032H32.6973ZM40.4023 101.228C39.6667 101.228 38.9993 101.104 38.4004 100.857C37.8079 100.603 37.2969 100.248 36.8672 99.7921C36.444 99.3364 36.1185 98.796 35.8906 98.171C35.6628 97.546 35.5488 96.8624 35.5488 96.1202V95.7101C35.5488 94.8507 35.6758 94.0857 35.9297 93.4152C36.1836 92.7381 36.5286 92.1652 36.9648 91.6964C37.401 91.2277 37.8958 90.8728 38.4492 90.632C39.0026 90.3911 39.5755 90.2706 40.168 90.2706C40.9232 90.2706 41.5742 90.4008 42.1211 90.6613C42.6745 90.9217 43.127 91.2863 43.4785 91.755C43.8301 92.2172 44.0905 92.7641 44.2598 93.3956C44.429 94.0206 44.5137 94.7042 44.5137 95.4464V96.257H36.623V94.7823H42.707V94.6456C42.681 94.1769 42.5833 93.7212 42.4141 93.2784C42.2513 92.8357 41.9909 92.4712 41.6328 92.1847C41.2747 91.8982 40.7865 91.755 40.168 91.755C39.7578 91.755 39.3802 91.8429 39.0352 92.0187C38.6901 92.1879 38.3939 92.4419 38.1465 92.7804C37.8991 93.1189 37.707 93.5323 37.5703 94.0206C37.4336 94.5089 37.3652 95.0721 37.3652 95.7101V96.1202C37.3652 96.6215 37.4336 97.0935 37.5703 97.5363C37.7135 97.9725 37.9186 98.3566 38.1855 98.6886C38.459 99.0206 38.7878 99.281 39.1719 99.4698C39.5625 99.6587 40.0052 99.7531 40.5 99.7531C41.138 99.7531 41.6784 99.6228 42.1211 99.3624C42.5638 99.102 42.9512 98.7537 43.2832 98.3175L44.377 99.1866C44.1491 99.5317 43.8594 99.8605 43.5078 100.173C43.1562 100.485 42.7233 100.739 42.209 100.935C41.7012 101.13 41.099 101.228 40.4023 101.228ZM53.2832 98.9816V86.0323H55.0996V101.032H53.4395L53.2832 98.9816ZM46.1738 95.8663V95.6613C46.1738 94.854 46.2715 94.1215 46.4668 93.464C46.6686 92.7999 46.9518 92.2303 47.3164 91.755C47.6875 91.2797 48.127 90.9152 48.6348 90.6613C49.1491 90.4008 49.722 90.2706 50.3535 90.2706C51.0176 90.2706 51.597 90.3878 52.0918 90.6222C52.5931 90.8501 53.0163 91.1853 53.3613 91.6281C53.7129 92.0642 53.9896 92.5916 54.1914 93.2101C54.3932 93.8286 54.5332 94.5284 54.6113 95.3097V96.2081C54.5397 96.9829 54.3997 97.6795 54.1914 98.298C53.9896 98.9165 53.7129 99.4438 53.3613 99.88C53.0163 100.316 52.5931 100.651 52.0918 100.886C51.5905 101.114 51.0046 101.228 50.334 101.228C49.7155 101.228 49.1491 101.094 48.6348 100.827C48.127 100.56 47.6875 100.186 47.3164 99.7042C46.9518 99.2225 46.6686 98.656 46.4668 98.005C46.2715 97.3475 46.1738 96.6346 46.1738 95.8663ZM47.9902 95.6613V95.8663C47.9902 96.3937 48.0423 96.8885 48.1465 97.3507C48.2572 97.8129 48.4264 98.2198 48.6543 98.5714C48.8822 98.923 49.1719 99.1997 49.5234 99.4015C49.875 99.5968 50.2949 99.6945 50.7832 99.6945C51.3822 99.6945 51.8737 99.5675 52.2578 99.3136C52.6484 99.0597 52.9609 98.7244 53.1953 98.3077C53.4297 97.8911 53.612 97.4386 53.7422 96.9503V94.5968C53.6641 94.2387 53.5501 93.8937 53.4004 93.5616C53.2572 93.2231 53.0684 92.9236 52.834 92.6632C52.6061 92.3963 52.3229 92.1847 51.9844 92.0284C51.6523 91.8722 51.2585 91.7941 50.8027 91.7941C50.3079 91.7941 49.8815 91.8982 49.5234 92.1066C49.1719 92.3084 48.8822 92.5883 48.6543 92.9464C48.4264 93.298 48.2572 93.7081 48.1465 94.1769C48.0423 94.6391 47.9902 95.1339 47.9902 95.6613ZM64.1426 99.2257V93.7863C64.1426 93.3696 64.0579 93.0083 63.8887 92.7023C63.7259 92.3898 63.4785 92.1489 63.1465 91.9796C62.8145 91.8103 62.4043 91.7257 61.916 91.7257C61.4603 91.7257 61.0599 91.8038 60.7148 91.9601C60.3763 92.1163 60.1094 92.3214 59.9141 92.5753C59.7253 92.8292 59.6309 93.1027 59.6309 93.3956H57.8242C57.8242 93.018 57.9219 92.6437 58.1172 92.2726C58.3125 91.9015 58.5924 91.5662 58.957 91.2667C59.3281 90.9607 59.7708 90.7198 60.2852 90.5441C60.806 90.3618 61.3854 90.2706 62.0234 90.2706C62.7917 90.2706 63.4688 90.4008 64.0547 90.6613C64.6471 90.9217 65.1094 91.3156 65.4414 91.8429C65.7799 92.3637 65.9492 93.018 65.9492 93.8058V98.7277C65.9492 99.0792 65.9785 99.4536 66.0371 99.8507C66.1022 100.248 66.1966 100.59 66.3203 100.876V101.032H64.4355C64.3444 100.824 64.2728 100.547 64.2207 100.202C64.1686 99.8507 64.1426 99.5252 64.1426 99.2257ZM64.4551 94.6261L64.4746 95.8956H62.6484C62.1341 95.8956 61.6751 95.9379 61.2715 96.0226C60.8678 96.1007 60.5293 96.2212 60.2559 96.3839C59.9824 96.5467 59.7741 96.7517 59.6309 96.9991C59.4876 97.24 59.416 97.5232 59.416 97.8488C59.416 98.1808 59.4909 98.4835 59.6406 98.757C59.7904 99.0304 60.015 99.2485 60.3145 99.4113C60.6204 99.5675 60.9948 99.6456 61.4375 99.6456C61.9909 99.6456 62.4792 99.5284 62.9023 99.2941C63.3255 99.0597 63.6608 98.7732 63.9082 98.4347C64.1621 98.0962 64.2988 97.7674 64.3184 97.4484L65.0898 98.3175C65.0443 98.5909 64.9206 98.8937 64.7188 99.2257C64.5169 99.5577 64.2467 99.8767 63.9082 100.183C63.5762 100.482 63.179 100.733 62.7168 100.935C62.2611 101.13 61.7467 101.228 61.1738 101.228C60.4577 101.228 59.8294 101.088 59.2891 100.808C58.7552 100.528 58.3385 100.153 58.0391 99.6847C57.7461 99.2094 57.5996 98.6788 57.5996 98.0929C57.5996 97.5265 57.7103 97.0284 57.9316 96.5988C58.153 96.1626 58.472 95.8012 58.8887 95.5148C59.3053 95.2218 59.8066 95.0004 60.3926 94.8507C60.9785 94.701 61.6328 94.6261 62.3555 94.6261H64.4551ZM74.9434 98.2296C74.9434 97.9692 74.8848 97.7283 74.7676 97.507C74.6569 97.2791 74.4258 97.074 74.0742 96.8917C73.7292 96.7029 73.2083 96.5402 72.5117 96.4034C71.9258 96.2797 71.3952 96.1333 70.9199 95.964C70.4512 95.7947 70.0508 95.5896 69.7188 95.3488C69.3932 95.1079 69.1426 94.8247 68.9668 94.4991C68.791 94.1736 68.7031 93.7928 68.7031 93.3566C68.7031 92.9399 68.7943 92.546 68.9766 92.1749C69.1654 91.8038 69.429 91.4751 69.7676 91.1886C70.1126 90.9021 70.526 90.6775 71.0078 90.5148C71.4896 90.352 72.0267 90.2706 72.6191 90.2706C73.4655 90.2706 74.1882 90.4204 74.7871 90.7198C75.3861 91.0193 75.8451 91.4197 76.1641 91.921C76.4831 92.4158 76.6426 92.9659 76.6426 93.5714H74.8359C74.8359 93.2784 74.748 92.9952 74.5723 92.7218C74.403 92.4419 74.1523 92.2107 73.8203 92.0284C73.4948 91.8462 73.0944 91.755 72.6191 91.755C72.1178 91.755 71.7109 91.8331 71.3984 91.9894C71.0924 92.1391 70.8678 92.3312 70.7246 92.5656C70.5879 92.7999 70.5195 93.0473 70.5195 93.3077C70.5195 93.5031 70.5521 93.6788 70.6172 93.8351C70.6888 93.9848 70.8125 94.1248 70.9883 94.255C71.1641 94.3787 71.4115 94.4959 71.7305 94.6066C72.0495 94.7172 72.4564 94.8279 72.9512 94.9386C73.8171 95.1339 74.5299 95.3683 75.0898 95.6417C75.6497 95.9152 76.0664 96.2504 76.3398 96.6476C76.6133 97.0447 76.75 97.5265 76.75 98.0929C76.75 98.5551 76.6523 98.9783 76.457 99.3624C76.2682 99.7465 75.9915 100.079 75.627 100.359C75.2689 100.632 74.8392 100.847 74.3379 101.003C73.8431 101.153 73.2865 101.228 72.668 101.228C71.737 101.228 70.9492 101.062 70.3047 100.73C69.6602 100.398 69.1719 99.9679 68.8398 99.4406C68.5078 98.9132 68.3418 98.3566 68.3418 97.7706H70.1582C70.1842 98.2654 70.3275 98.6593 70.5879 98.9523C70.8483 99.2387 71.1673 99.4438 71.5449 99.5675C71.9225 99.6847 72.2969 99.7433 72.668 99.7433C73.1628 99.7433 73.5762 99.6782 73.9082 99.548C74.2467 99.4178 74.5039 99.2387 74.6797 99.0109C74.8555 98.783 74.9434 98.5226 74.9434 98.2296Z" fill="#162C56"/>
</svg>
